<svg width="177" height="124" viewBox="0 0 177 124" fill="none" xmlns="http://www.w3.org/2000/svg">
<mask id="mask0" mask-type="alpha" maskUnits="userSpaceOnUse" x="0" y="0" width="177" height="124">
<rect y="0.220459" width="177" height="122.927" rx="10" fill="#AFDBC5"/>
</mask>
<g mask="url(#mask0)">
<path d="M176.998 -3.49463H-6.69292V178.587H176.998V-3.49463Z" fill="#4C53B4"/>
<path d="M150.223 102.939C165.549 71.529 148.839 32.0979 112.9 14.8675C76.9611 -2.36293 35.4021 9.13218 20.0756 40.5425C4.74914 71.9529 21.4589 111.384 57.398 128.614C93.3371 145.845 134.896 134.35 150.223 102.939Z" fill="#5F65BF"/>
<path d="M166.119 16.2393C164.854 14.9775 163.133 14.4222 161.575 14.7536C162.567 13.6301 162.712 11.8166 161.88 10.5147C161.033 9.18913 159.262 8.4863 157.67 8.845C156.364 9.13815 155.263 10.0103 154.69 11.1556C154.824 10.2234 154.815 9.0817 154.361 7.96554C153.81 6.61085 152.668 5.59848 151.376 5.32354C149.802 4.9885 147.971 5.79149 146.92 7.27909C146.246 8.2332 145.796 9.45497 145.632 10.7223C145.382 9.85009 144.797 9.04893 143.992 8.56823C142.796 7.85447 141.178 7.83262 139.868 8.50997C138.648 9.14179 137.693 10.3636 137.313 11.782C136.988 12.9983 137.065 14.3238 137.535 15.6348C136.402 14.6698 135.212 13.7448 133.615 14.0252C132.546 14.2128 131.663 14.8646 131.192 15.8133C130.724 16.7565 130.742 17.8398 131.24 18.7867C132.081 20.3853 133.803 21.3831 136.499 21.8365C138.366 22.1497 140.287 22.1697 142.144 22.188C142.489 22.1916 142.833 22.1952 143.178 22.2007C143.45 22.2043 143.691 22.2098 143.913 22.2171C145.436 22.2644 146.96 22.2954 148.443 22.3081C149.08 22.3136 149.714 22.3172 150.349 22.3172C152.655 22.3172 154.936 22.2772 157.157 22.1989C157.706 22.1788 158.265 22.1497 158.805 22.1224C159.602 22.0805 160.425 22.0386 161.235 22.0259C162.598 22.0022 163.816 21.9421 164.925 21.4505C165.884 21.0244 167.166 20.2943 167.253 18.8722C167.308 17.9709 166.895 17.0114 166.119 16.2393Z" fill="#93A1ED"/>
<path d="M174.913 45.003C174.035 44.129 172.845 43.7448 171.765 43.9743C172.452 43.1949 172.553 41.9404 171.976 41.0373C171.39 40.1196 170.163 39.6316 169.061 39.8792C168.155 40.0832 167.395 40.6859 166.996 41.4797C167.088 40.8333 167.082 40.0431 166.768 39.2693C166.388 38.3315 165.594 37.6305 164.7 37.4393C163.611 37.2063 162.341 37.7634 161.614 38.794C161.147 39.455 160.835 40.3017 160.721 41.1793C160.548 40.5748 160.143 40.0194 159.586 39.688C158.758 39.1946 157.637 39.1782 156.73 39.648C155.885 40.085 155.223 40.9317 154.961 41.9149C154.735 42.7579 154.788 43.6756 155.115 44.5842C154.331 43.916 153.506 43.2751 152.4 43.4699C151.66 43.5992 151.048 44.0507 150.721 44.708C150.398 45.3617 150.409 46.1119 150.754 46.7674C151.336 47.8744 152.529 48.5664 154.397 48.8795C155.69 49.0962 157.02 49.1108 158.307 49.1235C158.546 49.1253 158.785 49.129 159.024 49.1326C159.213 49.1363 159.378 49.1399 159.533 49.1435C160.587 49.1763 161.643 49.1982 162.67 49.2073C163.111 49.2109 163.552 49.2127 163.991 49.2127C165.587 49.2127 167.169 49.1854 168.706 49.1308C169.086 49.1181 169.474 49.098 169.847 49.078C170.398 49.0489 170.969 49.0197 171.529 49.0106C172.474 48.9942 173.317 48.9524 174.085 48.6119C174.748 48.3169 175.637 47.8107 175.697 46.8256C175.736 46.2011 175.449 45.5365 174.913 45.003Z" fill="#93A1ED"/>
<path d="M13.8676 81.8818C13.2136 81.2318 12.3264 80.9441 11.5237 81.1152C12.0362 80.5344 12.1096 79.6003 11.6816 78.9284C11.2445 78.2438 10.3315 77.8815 9.51041 78.0672C8.83627 78.2183 8.26866 78.6681 7.97292 79.2598C8.04272 78.7791 8.03721 78.1892 7.80392 77.6138C7.5192 76.9146 6.92956 76.392 6.2646 76.25C5.45268 76.077 4.50668 76.4922 3.96479 77.2587C3.61761 77.7504 3.38433 78.3822 3.29983 79.0359C3.17125 78.5861 2.86816 78.1728 2.45302 77.9252C1.83581 77.5574 1.00186 77.5464 0.325877 77.896C-0.304183 78.222 -0.796473 78.852 -0.993022 79.5839C-1.16202 80.2103 -1.12161 80.8949 -0.877297 81.5723C-1.46143 81.0752 -2.0768 80.5963 -2.89973 80.742C-3.4508 80.8385 -3.90636 81.1753 -4.15067 81.6651C-4.3913 82.1513 -4.38395 82.7103 -4.12679 83.1982C-3.69328 84.0231 -2.80605 84.5384 -1.41367 84.7714C-0.451135 84.9335 0.540795 84.9426 1.49966 84.9535C1.67784 84.9553 1.85602 84.9572 2.03236 84.959C2.17381 84.9608 2.29688 84.9644 2.41077 84.9681C3.19696 84.9918 3.98316 85.0081 4.74731 85.0154C5.07612 85.0191 5.40309 85.0209 5.73006 85.0209C6.91854 85.0209 8.09599 85.0009 9.24222 84.959C9.52511 84.9481 9.8135 84.9335 10.0927 84.9189C10.5042 84.8971 10.9285 84.8752 11.3455 84.8679C12.049 84.8552 12.6772 84.8261 13.2485 84.5711C13.7426 84.3508 14.4058 83.9739 14.4499 83.2419C14.4792 82.7758 14.2662 82.2806 13.8676 81.8818Z" fill="#93A1ED"/>
<path d="M175.163 90.6379C174.534 90.0134 173.682 89.7366 172.91 89.9023C173.403 89.3451 173.474 88.4475 173.061 87.8011C172.642 87.1438 171.764 86.796 170.976 86.9726C170.328 87.1183 169.784 87.5498 169.499 88.1179C169.565 87.6554 169.562 87.0891 169.336 86.5374C169.064 85.8655 168.496 85.3648 167.857 85.2283C167.078 85.0626 166.169 85.4595 165.649 86.1969C165.315 86.6703 165.093 87.2749 165.01 87.903C164.887 87.4715 164.597 87.0728 164.198 86.836C163.607 86.4828 162.804 86.4719 162.155 86.8069C161.551 87.1201 161.077 87.7264 160.89 88.4274C160.728 89.0301 160.767 89.6875 161 90.3375C160.438 89.8604 159.848 89.4016 159.058 89.54C158.529 89.6328 158.09 89.9551 157.857 90.4267C157.626 90.8947 157.633 91.43 157.881 91.8997C158.298 92.6918 159.15 93.1871 160.487 93.411C161.411 93.5658 162.365 93.5767 163.285 93.5858C163.456 93.5876 163.627 93.5895 163.798 93.5913C163.934 93.5931 164.051 93.5968 164.161 93.5986C164.916 93.6222 165.671 93.6368 166.406 93.6441C166.722 93.6477 167.036 93.6477 167.35 93.6477C168.493 93.6477 169.622 93.6277 170.723 93.5895C170.995 93.5804 171.272 93.5658 171.54 93.5512C171.935 93.5312 172.343 93.5093 172.743 93.5039C173.419 93.493 174.022 93.462 174.571 93.218C175.045 93.0068 175.682 92.6445 175.725 91.9398C175.752 91.4955 175.546 91.0221 175.163 90.6379Z" fill="#93A1ED"/>
<path d="M16.6469 43.8649C15.9801 43.2021 15.0745 42.9089 14.2552 43.0837C14.7769 42.492 14.854 41.5378 14.4168 40.8532C13.9723 40.1558 13.0392 39.7862 12.2015 39.9738C11.5145 40.1285 10.9359 40.5874 10.6328 41.1901C10.7026 40.6985 10.6989 40.0976 10.4602 39.5113C10.1699 38.7993 9.56925 38.2658 8.8896 38.1202C8.06115 37.9436 7.09678 38.366 6.54387 39.1489C6.18935 39.6515 5.95239 40.2942 5.86605 40.9606C5.73563 40.5018 5.42703 40.0794 5.0027 39.8263C4.37448 39.4512 3.52216 39.4384 2.83332 39.7953C2.19224 40.1267 1.68893 40.7713 1.4887 41.5178C1.31787 42.1569 1.35828 42.8561 1.60627 43.5462C1.00927 43.0382 0.382885 42.552 -0.456581 42.6995C-1.01867 42.7979 -1.48341 43.142 -1.73139 43.6409C-1.97754 44.1362 -1.96836 44.7079 -1.70568 45.205C-1.26298 46.0462 -0.357388 46.5706 1.06254 46.8109C2.04529 46.9766 3.05558 46.9857 4.03282 46.9967C4.21467 46.9985 4.39469 47.0003 4.57654 47.0021C4.71982 47.0039 4.84657 47.0076 4.96413 47.0112C5.76502 47.0367 6.56775 47.0513 7.34843 47.0604C7.68275 47.064 8.01707 47.0658 8.35139 47.0658C9.56374 47.0658 10.7651 47.044 11.9334 47.0039C12.2217 46.993 12.5157 46.9784 12.8004 46.9639C13.2192 46.942 13.6527 46.9202 14.0789 46.9129C14.7953 46.9002 15.4382 46.8692 16.0205 46.6106C16.5238 46.3867 17.1998 46.0025 17.2457 45.2541C17.2732 44.7753 17.0546 44.2709 16.6469 43.8649Z" fill="#93A1ED"/>
<path d="M36.9685 125.742C35.5798 124.358 33.6915 123.748 31.9832 124.112C33.0706 122.879 33.2304 120.889 32.3193 119.46C31.3917 118.005 29.4482 117.235 27.7013 117.626C26.2667 117.949 25.0617 118.904 24.4317 120.163C24.5786 119.139 24.5676 117.887 24.0716 116.663C23.4673 115.177 22.2127 114.067 20.7964 113.764C19.0697 113.396 17.0601 114.278 15.9066 115.909C15.1663 116.956 14.674 118.296 14.4921 119.687C14.2184 118.73 13.5755 117.85 12.692 117.324C11.3804 116.541 9.60414 116.517 8.16768 117.26C6.83041 117.952 5.78154 119.294 5.36456 120.851C5.00636 122.186 5.0927 123.64 5.60887 125.079C4.36528 124.021 3.05924 123.005 1.30867 123.313C0.134884 123.518 -0.833166 124.234 -1.34934 125.274C-1.86367 126.308 -1.84346 127.497 -1.2979 128.537C-0.375776 130.29 1.51256 131.384 4.47366 131.883C6.52181 132.227 8.62874 132.249 10.6677 132.269C11.0461 132.273 11.4245 132.277 11.8011 132.282C12.1005 132.286 12.3632 132.293 12.6075 132.3C14.2772 132.351 15.9507 132.386 17.5782 132.4C18.2762 132.408 18.9742 132.409 19.6685 132.409C22.198 132.409 24.7017 132.366 27.1374 132.278C27.7399 132.256 28.3534 132.226 28.9449 132.195C29.8193 132.149 30.7231 132.104 31.6103 132.087C33.1055 132.062 34.4428 131.996 35.6588 131.455C36.7095 130.987 38.1184 130.186 38.2121 128.628C38.2727 127.641 37.819 126.59 36.9685 125.742Z" fill="#93A1ED"/>
<path d="M31.4375 10.1324C30.1995 8.89973 28.5187 8.35531 26.9959 8.67941C27.9658 7.57964 28.1072 5.80798 27.2953 4.53523C26.4687 3.23881 24.7365 2.55236 23.1806 2.90196C21.9022 3.18965 20.8276 4.03997 20.2673 5.16159C20.3977 4.24936 20.3885 3.1332 19.9459 2.04253C19.4076 0.718799 18.289 -0.271726 17.027 -0.539386C15.4895 -0.867133 13.6967 -0.0823604 12.6699 1.37247C12.0104 2.30473 11.5714 3.49919 11.4097 4.73734C11.1654 3.8852 10.5923 3.10043 9.80612 2.63248C8.63785 1.93511 7.05444 1.91326 5.77411 2.57603C4.58196 3.19329 3.64881 4.38957 3.27592 5.77521C2.95814 6.9642 3.03345 8.26062 3.49451 9.54248C2.38686 8.5993 1.22226 7.69435 -0.337275 7.96929C-1.38247 8.1532 -2.24582 8.79048 -2.70505 9.71728C-3.16244 10.6386 -3.14591 11.6983 -2.65912 12.6233C-1.83619 14.1856 -0.155421 15.1615 2.48238 15.6058C4.30643 15.9135 6.18558 15.9317 8.00044 15.9499C8.3366 15.9536 8.67459 15.9572 9.01074 15.9609C9.27709 15.9645 9.51222 15.97 9.72897 15.9772C11.2169 16.0228 12.7066 16.0537 14.1578 16.0665C14.7805 16.0719 15.4013 16.0756 16.0204 16.0756C18.2724 16.0756 20.5043 16.0373 22.6755 15.959C23.2119 15.939 23.7593 15.9117 24.2865 15.8844C25.0653 15.8443 25.8699 15.8024 26.6616 15.7897C27.9933 15.766 29.1855 15.7078 30.2693 15.2271C31.2061 14.8101 32.4607 14.0963 32.5452 12.7071C32.6003 11.824 32.1962 10.8862 31.4375 10.1324Z" fill="#93A1ED"/>
<path d="M133.195 73.8066C129.312 69.9392 124.036 68.2331 119.26 69.2509C122.302 65.8041 122.745 60.2433 120.197 56.2503C117.601 52.1844 112.173 50.0285 107.289 51.1283C103.281 52.0296 99.9101 54.7007 98.1504 58.2149C98.56 55.3562 98.5325 51.853 97.1419 48.4335C95.4538 44.2802 91.9472 41.1757 87.9868 40.3327C83.1612 39.3039 77.5421 41.7693 74.322 46.3268C72.2537 49.2529 70.8742 53.0001 70.3709 56.8839C69.6067 54.2091 67.8084 51.751 65.3414 50.2798C61.6749 48.093 56.7116 48.0238 52.6961 50.1032C48.9562 52.0387 46.0282 55.7896 44.8617 60.1359C43.8625 63.8649 44.0994 67.9326 45.5451 71.9512C42.0696 68.9942 38.4197 66.1555 33.5262 67.0149C30.2473 67.5903 27.5397 69.5896 26.0959 72.4974C24.6613 75.3889 24.7145 78.7119 26.2428 81.6142C28.8219 86.5159 34.0975 89.5748 42.3709 90.9678C48.0928 91.931 53.9838 91.9892 59.6819 92.0457C60.7381 92.0566 61.7962 92.0675 62.8506 92.0821C63.6863 92.0948 64.4229 92.1112 65.1044 92.1313C69.7739 92.2751 74.4469 92.3698 78.9951 92.4135C80.9478 92.4317 82.8967 92.4408 84.8402 92.4408C91.9067 92.4408 98.9072 92.3188 105.717 92.0748C107.401 92.0147 109.113 91.9273 110.77 91.8418C113.213 91.7161 115.739 91.5868 118.22 91.5431C122.399 91.4721 126.137 91.2882 129.536 89.777C132.473 88.4696 136.409 86.2282 136.672 81.871C136.841 79.1143 135.574 76.1736 133.195 73.8066Z" fill="#74C7E5"/>
<path d="M72.0151 67.0132C71.6606 67.0533 71.4071 67.3719 71.4475 67.7215C71.5742 68.8158 71.0121 69.9975 70.0772 70.5948C69.144 71.192 67.8251 71.2139 66.8718 70.6476C65.9184 70.0813 65.3159 68.9196 65.4077 67.8217C65.4371 67.4703 65.1726 67.1607 64.8181 67.1316C64.4599 67.1006 64.1513 67.3646 64.1219 67.7161C64.0613 68.4389 64.2046 69.1673 64.5058 69.8246C64.1954 70.278 63.7913 70.6694 63.3247 70.9571C63.2237 71.019 63.1924 71.1501 63.2549 71.2503C63.2953 71.3158 63.3651 71.3504 63.4386 71.3504C63.4772 71.3504 63.5176 71.3395 63.5525 71.3176C64.0044 71.0391 64.4048 70.6713 64.7281 70.2488C65.0477 70.786 65.4831 71.2557 66.0029 71.6108C65.8174 72.0132 65.5088 72.3628 65.1212 72.5813C65.0183 72.6396 64.9816 72.7688 65.0404 72.8726C65.0789 72.9418 65.1524 72.9801 65.2277 72.9801C65.2645 72.9801 65.2994 72.9709 65.3343 72.9527C65.7861 72.6996 66.148 72.2991 66.374 71.8348C67.004 72.1716 67.7167 72.3409 68.4313 72.3409C69.2561 72.3409 70.0827 72.117 70.7789 71.6709C72.1308 70.806 72.9152 69.1618 72.7315 67.5759C72.6911 67.2244 72.3696 66.9732 72.0151 67.0132Z" fill="#231F20"/>
<path d="M99.3312 70.9571C98.8646 70.6694 98.4605 70.278 98.1501 69.8246C98.4513 69.1673 98.5946 68.4389 98.534 67.7179C98.5046 67.3665 98.1979 67.1061 97.8378 67.1316C97.4833 67.1607 97.2188 67.4684 97.2482 67.8217C97.3382 68.9196 96.7357 70.0813 95.7842 70.6476C94.8308 71.2139 93.5137 71.192 92.5788 70.5948C91.6456 69.9975 91.0817 68.8158 91.2084 67.7215C91.2488 67.3701 90.9953 67.0533 90.6408 67.0132C90.2881 66.9732 89.9667 67.2244 89.9263 67.5759C89.7426 69.16 90.5269 70.806 91.8789 71.6709C92.5769 72.117 93.4017 72.3409 94.2265 72.3409C94.941 72.3409 95.6519 72.1716 96.2838 71.8348C96.5097 72.2991 96.8716 72.6996 97.3235 72.9527C97.3566 72.9709 97.3933 72.9801 97.43 72.9801C97.5053 72.9801 97.5788 72.9418 97.6174 72.8726C97.6762 72.7707 97.6394 72.6396 97.5366 72.5813C97.149 72.3646 96.8404 72.015 96.6548 71.6108C97.1747 71.2576 97.61 70.7878 97.9297 70.2488C98.253 70.6731 98.6534 71.0391 99.1071 71.3176C99.142 71.3395 99.1824 71.3504 99.221 71.3504C99.2927 71.3504 99.3625 71.314 99.4047 71.2503C99.4616 71.1519 99.4323 71.0209 99.3312 70.9571Z" fill="#231F20"/>
<path d="M76.1775 82.1585C75.4978 81.4029 74.3002 81.1479 73.3321 81.5558C72.3328 81.9746 71.7065 83.0416 71.8754 84.0376C72.061 85.1319 73.1356 85.7255 74.1201 85.8274C74.234 85.8384 74.3442 85.8456 74.4545 85.8456C75.237 85.8456 75.9185 85.5507 76.3207 85.0245C76.9471 84.2051 76.8847 82.9469 76.1775 82.1585Z" fill="#91D9F2"/>
<path d="M67.4227 75.2468C66.3462 74.6113 64.8161 74.564 63.6037 74.5804C62.2407 74.5986 60.7143 74.7825 59.4615 75.3433C58.5173 75.7657 57.9791 76.6907 58.4438 77.6885C58.9637 78.8065 60.4093 79.1524 61.5262 79.289C63.3484 79.5111 67.2408 79.6313 68.2125 77.663C68.6607 76.7508 68.286 75.7566 67.4227 75.2468Z" fill="#57B6DC"/>
<path d="M105.417 75.2468C104.341 74.6113 102.811 74.564 101.598 74.5804C100.235 74.5986 98.7089 74.7825 97.4562 75.3433C96.512 75.7657 95.9738 76.6907 96.4385 77.6885C96.9584 78.8065 98.404 79.1524 99.5208 79.289C101.343 79.5111 105.235 79.6313 106.207 77.663C106.654 76.7508 106.281 75.7566 105.417 75.2468Z" fill="#57B6DC"/>
<path d="M30.3207 69.6898C27.9529 70.6712 26.4062 73.3132 26.7222 75.8369C27.0381 78.3605 29.1892 80.5491 31.7259 80.926C31.7847 80.9351 31.8435 80.9388 31.9041 80.9388C32.4846 80.9388 32.986 80.5091 33.0724 79.941C33.1201 79.6314 33.0411 79.3219 32.8538 79.0688C32.6664 78.8175 32.3909 78.6518 32.0786 78.6063C30.554 78.3787 29.2608 77.0641 29.0698 75.5474C28.8806 74.0306 29.81 72.441 31.2318 71.8529C32.6554 71.263 34.4482 71.7236 35.4034 72.9236C35.6 73.1694 35.881 73.3241 36.1933 73.3605C36.5074 73.397 36.816 73.3096 37.064 73.1166C37.312 72.9217 37.4681 72.6431 37.5067 72.3336C37.5452 72.0241 37.4552 71.7164 37.2605 71.4705C35.6716 69.4731 32.6866 68.7084 30.3207 69.6898Z" fill="#57B6DC"/>
<path d="M55.0749 50.5475C51.8989 51.092 48.9929 53.388 47.4884 56.5399C46.1953 59.251 45.8867 62.5995 46.6196 65.9662C46.7372 66.5015 47.2221 66.8912 47.775 66.8912C47.8595 66.8912 47.944 66.8821 48.0248 66.8639C48.3334 66.7983 48.5979 66.6163 48.7688 66.3522C48.9396 66.0882 48.9984 65.775 48.9304 65.4691C48.3059 62.6032 48.552 59.7882 49.6248 57.5395C50.8041 55.0668 53.0469 53.2715 55.4735 52.8545C58.0011 52.423 60.727 53.6557 61.8163 55.7241C61.9633 56.0027 62.2094 56.2066 62.5107 56.3013C62.8119 56.396 63.1334 56.3669 63.4126 56.223C63.9912 55.9244 64.2172 55.2143 63.9141 54.6407C62.349 51.6619 58.6293 49.9394 55.0749 50.5475Z" fill="#57B6DC"/>
<path d="M91.506 46.3797C90.549 43.3862 87.2554 41.2177 83.8461 41.3415C80.874 41.4471 77.9239 43.1168 75.9511 45.8079C74.3768 47.9565 73.3831 50.7369 72.9992 54.0726C72.9257 54.7154 73.3923 55.298 74.0425 55.3709C74.0885 55.3763 74.1325 55.3782 74.1766 55.3782C74.7773 55.3782 75.2824 54.9321 75.3504 54.3385C75.6884 51.4106 76.5352 49.0035 77.867 47.1845C79.4136 45.0723 81.6804 43.7632 83.9306 43.6849C86.3167 43.5993 88.6037 45.0632 89.2503 47.0862C89.3458 47.3848 89.5534 47.6306 89.8344 47.7744C90.1155 47.9183 90.4351 47.9456 90.7345 47.8509C91.3572 47.6561 91.7026 46.9969 91.506 46.3797Z" fill="#57B6DC"/>
<path d="M120.199 56.2503C122.746 60.2433 122.302 65.8023 119.262 69.2509C120.7 68.945 122.182 68.8868 123.657 69.0579C130.261 63.9087 134.648 55.9189 135.458 47.4667C136.354 38.1241 133.58 28.3881 128.217 22.059C122.75 15.6078 115.285 11.7222 106.029 10.5095C100.639 9.80307 94.2485 10.6461 89.7463 12.6526C85.233 14.6646 81.1679 18.3482 78.3024 23.024C75.7913 27.1209 74.0922 32.0425 73.2545 37.6488C73.2398 37.7453 73.2931 37.8382 73.3831 37.8764C73.4731 37.9147 73.5778 37.8855 73.6385 37.8091C75.5856 35.2708 78.9692 33.3918 83.1683 32.5141C87.2701 31.6583 91.4234 31.9733 94.8657 33.4027C98.6498 34.9722 101.695 38.0002 103.016 41.5017C104.442 45.2835 103.83 49.6407 101.457 52.6014C101.412 52.6578 101.398 52.7325 101.42 52.7999C101.442 52.8672 101.497 52.92 101.567 52.9401C101.919 53.0384 102.25 53.113 102.573 53.184C103.979 52.2226 105.575 51.5107 107.291 51.1247C112.173 50.0304 117.603 52.1844 120.199 56.2503Z" fill="#F5C371"/>
<path d="M107.552 29.8738C107.401 29.1328 107.089 28.4481 106.809 27.8655C106.655 27.5468 106.271 27.4103 105.95 27.5632C105.628 27.7162 105.492 28.0967 105.645 28.4154C105.893 28.9288 106.167 29.5279 106.288 30.1251C106.37 30.5366 106.418 31.1393 106.167 31.6765C105.851 32.352 105.068 32.8218 104.219 32.8454C103.424 32.8691 102.559 32.5177 101.855 31.884C101.591 31.6455 101.183 31.6655 100.944 31.9259C100.704 32.1881 100.724 32.5923 100.986 32.829C101.903 33.6557 103.049 34.1236 104.148 34.1236C104.183 34.1236 104.219 34.1236 104.254 34.1218C105.581 34.0854 106.819 33.317 107.337 32.2118C107.651 31.5417 107.724 30.7333 107.552 29.8738Z" fill="#231F20"/>
<path d="M86.1678 22.6634C84.2574 22.0188 82.0366 23.9907 82.3324 25.9408C82.4499 26.7092 82.8816 27.4885 83.4731 27.9984C84.5862 28.9561 86.4231 28.3716 87.3398 27.4248C88.7083 26.01 88.0323 23.2934 86.1678 22.6634Z" fill="#FFEAA3"/>
<path d="M99.129 26.6839C98.4438 25.0962 96.787 24.5499 95.2789 25.2783C94.4247 25.6916 93.6091 26.4545 93.5099 27.4359C93.3391 29.1329 94.6855 31.154 96.5941 30.5441C98.1022 30.0597 99.8546 28.3627 99.129 26.6839Z" fill="#FFEAA3"/>
<path d="M106.328 14.2677C106.045 14.0747 105.737 13.9181 105.417 13.8071C104.056 13.3337 102.572 13.605 101.635 14.7211C99.7961 16.9134 101.335 20.6133 104.429 19.9359C105.707 19.6555 107.239 18.8799 107.662 17.5507C108.079 16.2415 107.388 14.9942 106.328 14.2677Z" fill="#FFEAA3"/>
<path d="M127.453 24.508C127.201 23.7869 126.576 23.2371 125.864 22.9821C124.177 22.3776 122.467 23.4792 122.017 25.138C121.736 26.174 122.059 27.4195 123.094 27.9366C124.328 28.5538 125.788 27.8801 126.679 26.9734C127.346 26.2978 127.785 25.4621 127.453 24.508Z" fill="#FFEAA3"/>
<path d="M129.126 34.6373C126.747 34.5553 124.537 36.3197 124.728 38.7869C124.73 38.8106 124.736 38.8324 124.741 38.8561C124.741 39.1547 124.803 39.4606 124.954 39.7702C125.417 40.7243 126.359 41.469 127.338 41.8495C129.519 42.7017 131.958 41.895 132.324 39.4442C132.664 37.1664 131.754 34.7265 129.126 34.6373Z" fill="#FFEAA3"/>
<path d="M115.152 43.559C113.861 43.3969 112.608 44.5349 112.055 45.6001C111.512 46.6471 111.842 47.9289 112.746 48.6682C114.153 49.8207 116.308 49.1543 117.127 47.7705C118.2 46.3885 117.199 43.8139 115.152 43.559Z" fill="#FFEAA3"/>
<path d="M129.115 52.5505C128.13 50.9991 126.314 51.0064 124.925 52.0789C123.876 52.8891 123.195 54.313 123.702 55.604C124.177 56.8185 125.483 57.4758 126.747 57.5049C129.523 57.5686 130.405 54.5825 129.115 52.5505Z" fill="#FFEAA3"/>
<path d="M115.741 28.5281C113.446 28.6192 111.892 30.653 110.73 32.4228C110.43 32.8034 110.212 33.2368 110.166 33.7411C110.087 34.6005 110.55 35.3999 111.361 35.724C113.184 36.4523 115.436 34.3365 116.373 33.0073C117.179 31.862 118.182 28.4316 115.741 28.5281Z" fill="#FFEAA3"/>
<path d="M97.6048 13.5357C97.4064 12.8165 96.4916 12.649 95.9645 12.6144C87.9666 12.0845 80.7291 19.6027 77.3915 26.8131C76.8459 27.993 76.4565 29.1783 76.2379 30.34L76.225 30.4056C76.0909 31.1084 75.9403 31.9059 75.8852 32.6142C75.8632 32.8946 75.922 33.1641 76.0505 33.3735C76.102 33.4573 76.1644 33.5319 76.2361 33.592C76.3812 33.7158 76.541 33.7777 76.7155 33.7777C76.7633 33.7777 76.811 33.7723 76.8606 33.7632C77.4833 33.6448 78.0822 32.7927 78.3118 32.3593C78.7673 31.4981 79.0906 30.564 79.4029 29.6627C79.5241 29.3131 79.6454 28.9635 79.7739 28.6175C81.1626 24.8812 83.2843 21.835 86.08 19.5644C88.6113 17.5087 91.7414 16.3306 94.7466 15.3638C94.8458 15.331 94.9891 15.2946 95.158 15.2509C95.9112 15.0543 97.1713 14.7229 97.5332 14.1038C97.6342 13.9253 97.6599 13.7342 97.6048 13.5357Z" fill="#FFF4D1"/>
<path d="M99.9117 11.8004C99.5903 11.6147 99.21 11.6275 98.8702 11.7549C98.6829 11.8259 98.5249 11.9206 98.4202 12.0991C98.0106 12.7946 99.019 13.7414 99.7152 13.5721C100.055 13.4902 100.332 13.228 100.415 12.8893C100.523 12.4523 100.29 12.0189 99.9117 11.8004Z" fill="#FFF4D1"/>
<path d="M135.535 46.5343C135.556 46.2321 135.574 45.928 135.587 45.6257C135.425 45.7951 135.289 46.0045 135.195 46.2612C133.676 50.3471 131.34 54.1435 128.346 57.3318C127.056 58.7047 125.66 59.9574 124.202 61.1391C124.435 60.9497 123.507 58.7484 123.377 58.4352C122.989 57.5048 122.502 56.6144 121.929 55.7804C120.803 54.1435 119.345 52.7287 117.66 51.6617C114.135 49.4276 110.054 49.0307 106.117 50.3307C105.07 50.6767 104.119 51.141 103.252 51.8402C102.791 51.8912 102.333 51.9549 101.881 52.0314C101.747 52.228 101.604 52.4192 101.455 52.6049C101.411 52.6614 101.396 52.736 101.418 52.8034C101.441 52.8708 101.496 52.9236 101.565 52.9436C101.918 53.0419 102.249 53.1166 102.572 53.1876C103.977 52.2262 105.574 51.5143 107.289 51.1282C112.174 50.0303 117.602 52.1843 120.197 56.2502C122.332 59.5951 122.365 64.0397 120.531 67.4228C120.531 67.4228 120.531 67.4246 120.53 67.4246C120.462 67.5484 120.392 67.6704 120.32 67.7924C120.315 67.7997 120.311 67.8088 120.306 67.816C120.238 67.9289 120.168 68.0382 120.096 68.1474C120.085 68.1638 120.076 68.1802 120.065 68.1948C119.999 68.2949 119.929 68.3951 119.857 68.4934C119.841 68.5152 119.826 68.5389 119.81 68.5608C119.742 68.6554 119.67 68.7465 119.598 68.8375C119.578 68.863 119.56 68.8885 119.541 68.9122C119.45 69.0269 119.356 69.1398 119.259 69.249C120.697 68.9431 122.179 68.8849 123.654 69.056C130.258 63.9068 134.644 55.917 135.455 47.4648C135.484 47.1589 135.51 46.853 135.53 46.5471C135.535 46.5434 135.535 46.538 135.535 46.5343Z" fill="#EBCE72"/>
<path d="M38.1587 40.9171C38.0338 40.6986 37.7528 40.6222 37.5323 40.746L31.8434 43.947L35.7395 36.7784C35.8295 36.6109 35.8075 36.407 35.6807 36.2631C35.5558 36.1211 35.3538 36.0701 35.1737 36.1357C32.591 37.0934 30.1075 38.3316 27.7949 39.8174C27.5818 39.9539 27.5212 40.2362 27.659 40.4474C27.7967 40.6586 28.0814 40.7187 28.2945 40.5821C30.2049 39.3567 32.2329 38.3024 34.3361 37.4412L30.2765 44.9084C30.1792 45.0868 30.2141 45.3071 30.3592 45.4492C30.4474 45.5347 30.5631 45.5784 30.6807 45.5784C30.7578 45.5784 30.8368 45.5584 30.9066 45.5183L37.9842 41.5344C38.2065 41.4124 38.2836 41.1356 38.1587 40.9171Z" fill="#F7E9BC"/>
<path d="M43.3517 53.2294C43.2525 52.9982 42.9825 52.8907 42.7492 52.9891C41.5534 53.4934 40.3153 53.914 39.0552 54.2454C40.1665 52.5466 41.0813 50.7258 41.783 48.823C41.8417 48.6628 41.805 48.4825 41.6893 48.3569C41.5717 48.2313 41.3935 48.1821 41.2282 48.2276C39.0956 48.8212 37.0566 49.7025 35.1664 50.8478C34.9497 50.9789 34.8817 51.2593 35.014 51.4741C35.1462 51.689 35.4291 51.7564 35.6459 51.6253C37.198 50.6839 38.8568 49.9283 40.5871 49.3711C39.8156 51.2538 38.8255 53.0419 37.6352 54.6988C37.525 54.8518 37.5213 55.0575 37.626 55.2141C37.7124 55.3434 37.8575 55.418 38.01 55.418C38.043 55.418 38.0761 55.4144 38.1073 55.4071C39.8175 55.0375 41.5001 54.504 43.1111 53.8248C43.3425 53.7283 43.4509 53.4606 43.3517 53.2294Z" fill="#F7E9BC"/>
<path d="M33.2432 30.2743C33.1293 30.0503 32.8519 29.9593 32.626 30.0721L23.2504 34.7626C25.0083 31.1228 27.1263 27.6468 29.5602 24.4149C29.6777 24.2583 29.6814 24.0434 29.5693 23.8832C29.4573 23.7229 29.2534 23.6501 29.0642 23.7047C25.9047 24.6133 22.9436 26.0317 20.2636 27.9236C20.0578 28.0692 20.0082 28.3533 20.1552 28.559C20.3021 28.763 20.5887 28.8121 20.7963 28.6665C23.0134 27.1006 25.4308 25.8679 27.9969 24.9939C25.6126 28.3114 23.5498 31.8638 21.8562 35.571C21.7753 35.7476 21.8158 35.9534 21.9572 36.0881C22.0454 36.1719 22.1593 36.2156 22.275 36.2156C22.3448 36.2156 22.4164 36.1992 22.4826 36.1664L33.0411 30.8842C33.2652 30.7732 33.357 30.4982 33.2432 30.2743Z" fill="#F7E9BC"/>
<path d="M48.5245 40.2454C47.7254 40.2454 47.7236 41.4762 48.5245 41.4762C49.3235 41.4762 49.3254 40.2454 48.5245 40.2454Z" fill="#ADB9D1"/>
<path d="M51.2801 24.8867C50.7511 24.8867 50.7511 25.7006 51.2801 25.7006C51.8092 25.7006 51.8092 24.8867 51.2801 24.8867Z" fill="#ADB9D1"/>
<path d="M70.0145 12.0063C68.7194 12.0063 68.7176 14.002 70.0145 14.002C71.3095 14.002 71.3132 12.0063 70.0145 12.0063Z" fill="#ADB9D1"/>
<path d="M51.005 13.4065C50.8172 13.4065 50.8172 13.6942 51.005 13.6942C51.1928 13.6942 51.1928 13.4065 51.005 13.4065Z" fill="#ADB9D1"/>
<path d="M6.92075 31.1228C6.68691 31.1228 6.68691 31.4815 6.92075 31.4815C7.1546 31.4815 7.1546 31.1228 6.92075 31.1228Z" fill="#ADB9D1"/>
<path d="M19.3198 37.8381H19.0442C18.7448 37.8381 18.4601 38.0985 18.4729 38.4044C18.4876 38.7103 18.7246 38.9707 19.0442 38.9707H19.3198C19.6192 38.9707 19.9039 38.7103 19.891 38.4044C19.8763 38.0967 19.6394 37.8381 19.3198 37.8381Z" fill="#ADB9D1"/>
<path d="M6.3695 62.9146C5.21776 62.9146 5.21592 64.6898 6.3695 64.6898C7.52124 64.6898 7.52308 62.9146 6.3695 62.9146Z" fill="#ADB9D1"/>
<path d="M19.5952 70.6565C18.5647 70.6565 18.5628 72.2443 19.5952 72.2443C20.6257 72.2424 20.6275 70.6565 19.5952 70.6565Z" fill="#ADB9D1"/>
<path d="M20.6976 77.8379C20.4821 77.8379 20.4803 78.1693 20.6976 78.1693C20.913 78.1693 20.913 77.8379 20.6976 77.8379Z" fill="#ADB9D1"/>
<path d="M5.79795 99.6367C5.41955 99.6367 5.41955 100.219 5.79795 100.219C6.17636 100.219 6.17636 99.6367 5.79795 99.6367Z" fill="#ADB9D1"/>
<path d="M20.6773 104.134C19.5201 104.134 19.5182 105.917 20.6773 105.917C21.8346 105.918 21.8364 104.134 20.6773 104.134Z" fill="#ADB9D1"/>
<path d="M39.5972 106.008C38.98 106.008 38.98 106.958 39.5972 106.958C40.2144 106.958 40.2144 106.008 39.5972 106.008Z" fill="#ADB9D1"/>
<path d="M56.6677 110.673C56.6585 110.487 56.5979 110.296 56.4565 110.167C56.4069 110.13 56.3591 110.092 56.3095 110.055C56.1975 109.99 56.0762 109.959 55.9458 109.957C55.7438 109.932 55.5178 110.048 55.3801 110.188C55.2349 110.336 55.1541 110.538 55.1541 110.746C55.1523 111.161 55.4995 111.563 55.9403 111.538C56.1314 111.527 56.3114 111.465 56.451 111.328C56.5759 111.204 56.6696 111 56.6622 110.822C56.6622 110.809 56.6585 110.797 56.6585 110.786C56.6641 110.746 56.6696 110.709 56.6677 110.673Z" fill="#ADB9D1"/>
<path d="M7.63525 112.326C6.71129 112.326 6.70945 113.75 7.63525 113.75C8.55922 113.75 8.56106 112.326 7.63525 112.326Z" fill="#ADB9D1"/>
<path d="M113.808 113.781C113.417 113.799 113.088 114.094 113.088 114.494V114.677C113.088 115.05 113.419 115.408 113.808 115.39C114.199 115.372 114.528 115.077 114.528 114.677V114.494C114.528 114.121 114.198 113.762 113.808 113.781Z" fill="#ADB9D1"/>
<path d="M124.83 115.691H124.646C124.545 115.691 124.545 115.847 124.646 115.847H124.83C124.932 115.847 124.932 115.691 124.83 115.691Z" fill="#ADB9D1"/>
<path d="M170.201 121.324C168.902 121.324 168.901 123.324 170.201 123.324C171.5 123.324 171.502 121.324 170.201 121.324Z" fill="#ADB9D1"/>
<path d="M169.65 107.215C168.71 107.215 168.708 108.664 169.65 108.664C170.591 108.664 170.593 107.215 169.65 107.215Z" fill="#ADB9D1"/>
<path d="M132.728 110.969C132.17 110.969 132.168 111.831 132.728 111.831C133.287 111.829 133.289 110.969 132.728 110.969Z" fill="#ADB9D1"/>
<path d="M129.133 102.945C129.073 102.885 129.01 102.823 128.95 102.763C128.788 102.603 128.548 102.505 128.32 102.505C128.101 102.505 127.84 102.601 127.69 102.763C127.534 102.931 127.418 103.153 127.429 103.388C127.44 103.623 127.519 103.843 127.69 104.012L127.873 104.194C128.035 104.355 128.276 104.453 128.503 104.453C128.722 104.453 128.983 104.356 129.133 104.194C129.29 104.027 129.405 103.805 129.394 103.57C129.383 103.335 129.304 103.115 129.133 102.945Z" fill="#ADB9D1"/>
<path d="M161.384 101.172C160.872 101.172 160.872 101.96 161.384 101.96C161.896 101.962 161.896 101.172 161.384 101.172Z" fill="#ADB9D1"/>
<path d="M149.077 89.5947C148.664 89.5947 148.664 90.232 149.077 90.232C149.49 90.232 149.49 89.5947 149.077 89.5947Z" fill="#ADB9D1"/>
<path d="M139.342 78.9395H139.158C139.095 78.9395 139.095 79.0359 139.158 79.0359H139.342C139.404 79.0378 139.404 78.9395 139.342 78.9395Z" fill="#ADB9D1"/>
<path d="M141.957 67.4737C141.792 67.3244 141.589 67.2297 141.362 67.2297H141.178C140.963 67.2297 140.735 67.3226 140.583 67.4737C140.438 67.6176 140.328 67.8561 140.337 68.0637C140.346 68.2785 140.418 68.5025 140.583 68.6536C140.748 68.8029 140.95 68.8976 141.178 68.8976H141.362C141.577 68.8976 141.804 68.8047 141.957 68.6536C142.102 68.5098 142.212 68.2712 142.203 68.0637C142.192 67.8488 142.12 67.6249 141.957 67.4737Z" fill="#ADB9D1"/>
<path d="M144.409 54.0433V54.2254C144.409 54.3219 144.562 54.3219 144.562 54.2254V54.0433C144.56 53.9468 144.409 53.9468 144.409 54.0433Z" fill="#ADB9D1"/>
<path d="M158.078 80.551H157.964C157.156 80.551 157.154 81.7965 157.964 81.7965H158.078C158.886 81.7965 158.888 80.551 158.078 80.551Z" fill="#ADB9D1"/>
<path d="M151.281 63.0728C150.003 63.0728 149.999 65.0429 151.281 65.0429C152.56 65.0429 152.563 63.0728 151.281 63.0728Z" fill="#ADB9D1"/>
<path d="M167.079 54.7209C166.538 54.7209 166.538 55.5531 167.079 55.5531C167.619 55.5512 167.619 54.7209 167.079 54.7209Z" fill="#ADB9D1"/>
<path d="M140.443 42.405H140.259C140.028 42.405 139.785 42.5052 139.62 42.6672C139.464 42.822 139.346 43.0769 139.356 43.3009C139.378 43.7852 139.752 44.1967 140.259 44.1967H140.443C140.674 44.1967 140.917 44.0966 141.082 43.9345C141.238 43.7797 141.356 43.5248 141.347 43.3009C141.325 42.8165 140.95 42.405 140.443 42.405Z" fill="#ADB9D1"/>
<path d="M160.649 31.2852H160.282C159.9 31.2852 159.532 31.6184 159.549 32.0117C159.567 32.405 159.87 32.7382 160.282 32.7382H160.649C161.031 32.7382 161.399 32.405 161.382 32.0117C161.364 31.6184 161.059 31.2852 160.649 31.2852Z" fill="#ADB9D1"/>
<path d="M171.671 34.5645C170.495 34.5645 170.493 36.3762 171.671 36.3762C172.846 36.378 172.848 34.5645 171.671 34.5645Z" fill="#ADB9D1"/>
<path d="M172.038 25.9465C171.728 25.9465 171.728 26.4236 172.038 26.4236C172.349 26.4236 172.349 25.9465 172.038 25.9465Z" fill="#ADB9D1"/>
<path d="M165.747 3.10605C165.578 2.93853 165.3 2.81289 165.058 2.822C164.806 2.83292 164.544 2.91486 164.369 3.10605C164.195 3.29541 164.083 3.52848 164.083 3.78885V3.97094C164.083 4.21857 164.191 4.47894 164.369 4.65374C164.538 4.82126 164.815 4.94689 165.058 4.93779C165.31 4.92687 165.572 4.84493 165.747 4.65374C165.921 4.46438 166.033 4.23131 166.033 3.97094V3.78885C166.033 3.54122 165.925 3.28084 165.747 3.10605Z" fill="#ADB9D1"/>
<path d="M153.599 0.358398H153.486C152.106 0.358398 152.102 2.48511 153.486 2.48511H153.599C154.979 2.48511 154.983 0.358398 153.599 0.358398Z" fill="#ADB9D1"/>
<path d="M127.034 8.77051C125.703 8.77051 125.699 10.8226 127.034 10.8226C128.366 10.8244 128.37 8.77051 127.034 8.77051Z" fill="#ADB9D1"/>
<path d="M105.175 1.7605C104.433 1.7605 104.431 2.90397 105.175 2.90397C105.917 2.90397 105.919 1.7605 105.175 1.7605Z" fill="#ADB9D1"/>
<path d="M75.0497 0.766357C73.9622 0.766357 73.9604 2.44151 75.0497 2.44151C76.1371 2.44151 76.139 0.766357 75.0497 0.766357Z" fill="#ADB9D1"/>
<path d="M64.3954 39.6973C63.9711 39.6973 63.9711 40.3491 64.3954 40.3491C64.8198 40.3491 64.8198 39.6973 64.3954 39.6973Z" fill="#ADB9D1"/>
<path d="M36.4011 22.8328C36.3957 22.8328 36.3957 22.84 36.4011 22.84C36.4065 22.84 36.4065 22.8328 36.4011 22.8328Z" fill="#515763"/>
<path d="M57.6209 2.34842L57.3454 2.0753C57.1985 1.92963 56.9303 1.91871 56.7852 2.0753C56.6401 2.23189 56.629 2.47588 56.7852 2.63065C56.877 2.72169 56.9689 2.81273 57.0607 2.90377C57.2077 3.04943 57.4758 3.06036 57.6209 2.90377C57.7661 2.74718 57.7789 2.50319 57.6209 2.34842Z" fill="#515763"/>
<path d="M1.96107 21.2229H1.68553C1.40999 21.2229 1.14732 21.4632 1.16017 21.7437C1.17303 22.0259 1.39163 22.2644 1.68553 22.2644H1.96107C2.2366 22.2644 2.49928 22.0241 2.48642 21.7437C2.47356 21.4614 2.25681 21.2229 1.96107 21.2229Z" fill="#515763"/>
<path d="M13.5333 52.6902C12.5818 52.6902 12.58 54.1578 13.5333 54.1578C14.4848 54.1578 14.4867 52.6902 13.5333 52.6902Z" fill="#515763"/>
<path d="M-0.188327 89.5164H-0.26364C-1.25006 89.5164 -1.2519 91.0367 -0.26364 91.0367H-0.188327C0.799928 91.0386 0.801765 89.5164 -0.188327 89.5164Z" fill="#515763"/>
<path d="M45.8426 121.235H45.6589C45.4678 121.235 45.286 121.401 45.2952 121.596C45.3043 121.792 45.455 121.956 45.6589 121.956H45.8426C46.0336 121.956 46.2155 121.79 46.2063 121.596C46.1989 121.399 46.0465 121.235 45.8426 121.235Z" fill="#515763"/>
<path d="M144.485 118.657C144.451 118.657 144.451 118.705 144.485 118.705C144.518 118.707 144.518 118.657 144.485 118.657Z" fill="#515763"/>
<path d="M157.71 110.399C156.885 110.399 156.884 111.669 157.71 111.669C158.535 111.67 158.537 110.399 157.71 110.399Z" fill="#515763"/>
<path d="M172.957 78.7554C172.18 78.7554 172.18 79.9517 172.957 79.9517C173.734 79.9498 173.734 78.7554 172.957 78.7554Z" fill="#515763"/>
<path d="M157.526 53.7756C157.181 53.7902 156.889 54.0524 156.889 54.4075V54.5895C156.889 54.9191 157.181 55.2359 157.526 55.2214C157.872 55.2068 158.164 54.9446 158.164 54.5895V54.4075C158.164 54.0779 157.87 53.7611 157.526 53.7756Z" fill="#515763"/>
<path d="M139.892 24.5278C139.633 24.5278 139.633 24.9266 139.892 24.9266C140.152 24.9284 140.152 24.5278 139.892 24.5278Z" fill="#515763"/>
<path d="M173.692 7.39575C173.647 7.39575 173.647 7.46277 173.692 7.46277C173.737 7.46458 173.737 7.39575 173.692 7.39575Z" fill="#515763"/>
<path d="M111.236 7.23926C111.224 7.23926 111.224 7.2584 111.236 7.2584C111.249 7.25666 111.249 7.23926 111.236 7.23926Z" fill="#515763"/>
<path d="M98.0111 6.05736C97.6584 6.07375 97.3609 6.33959 97.3609 6.70193V6.88401C97.3609 7.22086 97.6603 7.54315 98.0111 7.52858C98.3638 7.51219 98.6614 7.24635 98.6614 6.88401V6.70193C98.6614 6.36508 98.362 6.04279 98.0111 6.05736Z" fill="#515763"/>
<path d="M65.8833 25.158C64.6416 25.158 64.6398 27.0698 65.8833 27.0698C67.1233 27.0698 67.1269 25.158 65.8833 25.158Z" fill="#F2E3B5"/>
<path d="M38.517 22.1044C38.3351 21.9241 38.0394 21.7894 37.7785 21.8021C37.5085 21.8148 37.2293 21.9022 37.0401 22.1044C36.8527 22.3065 36.7352 22.5559 36.7352 22.8363V23.1095C36.7352 23.3753 36.8509 23.6539 37.0401 23.8414C37.2219 24.0217 37.5177 24.1564 37.7785 24.1437C38.0486 24.1309 38.3278 24.0435 38.517 23.8414C38.7043 23.6393 38.8219 23.3899 38.8219 23.1095V22.8363C38.8219 22.5705 38.7062 22.2919 38.517 22.1044Z" fill="#F2E3B5"/>
<path d="M38.33 7.91846C38.1109 7.91846 38.1091 8.25713 38.33 8.25713C38.551 8.25713 38.551 7.91846 38.33 7.91846Z" fill="#F2E3B5"/>
<path d="M18.4928 19.6626H18.2173C17.984 19.6626 17.7618 19.8665 17.7728 20.1032C17.7838 20.3418 17.9693 20.5457 18.2173 20.5457H18.4928C18.7261 20.5457 18.9484 20.3418 18.9374 20.1032C18.9264 19.8665 18.7427 19.6626 18.4928 19.6626Z" fill="#F2E3B5"/>
<path d="M0.0321668 53.927C-0.733823 53.927 -0.73566 55.1069 0.0321668 55.1069C0.798156 55.1069 0.799993 53.927 0.0321668 53.927Z" fill="#F2E3B5"/>
<path d="M26.2081 55.2122H25.9325C25.7231 55.2122 25.5211 55.3942 25.5321 55.6091C25.5413 55.8239 25.7084 56.006 25.9325 56.006H26.2081C26.4175 56.006 26.6195 55.8239 26.6085 55.6091C26.5993 55.3942 26.4322 55.2122 26.2081 55.2122Z" fill="#F2E3B5"/>
<path d="M23.4524 86.98C22.6956 86.98 22.6937 88.1453 23.4524 88.1453C24.2092 88.1453 24.211 86.98 23.4524 86.98Z" fill="#F2E3B5"/>
<path d="M13.2576 91.9255C12.5394 91.9255 12.5375 93.0326 13.2576 93.0326C13.9758 93.0326 13.9777 91.9255 13.2576 91.9255Z" fill="#F2E3B5"/>
<path d="M0.96703 107.18C0.895391 106.963 0.759459 106.747 0.548215 106.639C0.393915 106.561 0.232268 106.499 0.0559253 106.506C-0.184709 106.517 -0.436366 106.601 -0.605361 106.78C-0.794562 106.98 -0.884571 107.217 -0.893755 107.486C-0.90294 107.736 -0.789051 108.023 -0.603524 108.193C-0.276555 108.489 0.160629 108.54 0.550053 108.333C0.748438 108.227 0.910086 108.003 0.968867 107.792C0.992746 107.706 0.998257 107.61 0.994583 107.513C1.00744 107.4 1.00193 107.288 0.96703 107.18Z" fill="#F2E3B5"/>
<path d="M35.1885 93.8301C34.5989 93.8301 34.5989 94.7368 35.1885 94.7368C35.7782 94.7368 35.7782 93.8301 35.1885 93.8301Z" fill="#F2E3B5"/>
<path d="M130.891 120.084C129.875 120.084 129.874 121.649 130.891 121.649C131.907 121.65 131.909 120.084 130.891 120.084Z" fill="#F2E3B5"/>
<path d="M144.564 120.243C144.503 120.183 144.441 120.121 144.38 120.061C144.218 119.901 143.98 119.802 143.75 119.802C143.531 119.802 143.27 119.899 143.12 120.061C142.964 120.228 142.848 120.45 142.859 120.685C142.87 120.918 142.949 121.141 143.12 121.31C143.18 121.37 143.243 121.432 143.304 121.492C143.465 121.652 143.704 121.751 143.934 121.751C144.152 121.751 144.413 121.654 144.564 121.492C144.72 121.324 144.835 121.102 144.824 120.867C144.813 120.634 144.733 120.412 144.564 120.243Z" fill="#F2E3B5"/>
<path d="M156.608 119.185C156.077 119.185 156.077 120.003 156.608 120.003C157.139 120.001 157.139 119.185 156.608 119.185Z" fill="#F2E3B5"/>
<path d="M147.607 101.776C147.424 101.783 147.267 101.924 147.267 102.113V102.295C147.267 102.472 147.424 102.639 147.607 102.632C147.791 102.625 147.947 102.484 147.947 102.295V102.113C147.947 101.936 147.791 101.769 147.607 101.776Z" fill="#F2E3B5"/>
<path d="M137.137 93.5405C136.409 93.5405 136.407 94.6603 137.137 94.6603C137.864 94.6622 137.866 93.5405 137.137 93.5405Z" fill="#F2E3B5"/>
<path d="M175.161 96.1133C174.463 96.1133 174.463 97.1876 175.161 97.1876C175.859 97.1876 175.859 96.1133 175.161 96.1133Z" fill="#F2E3B5"/>
<path d="M147.5 78.3659C147.44 78.3058 147.377 78.2439 147.317 78.1838C147.181 78.0491 146.931 78.0381 146.797 78.1838C146.663 78.3295 146.652 78.5553 146.797 78.6991L146.981 78.8812C147.116 79.0159 147.366 79.0269 147.5 78.8812C147.634 78.7373 147.645 78.5116 147.5 78.3659Z" fill="#F2E3B5"/>
<path d="M162.118 69.7988C161.771 69.7988 161.769 70.3341 162.118 70.3341C162.466 70.3341 162.467 69.7988 162.118 69.7988Z" fill="#F2E3B5"/>
<path d="M169.65 64.9809C169.358 64.9937 169.112 65.2158 169.112 65.5144V65.6965C169.112 65.9751 169.36 66.2427 169.65 66.23C169.942 66.2172 170.189 65.9951 170.189 65.6965V65.5144C170.189 65.2358 169.941 64.9682 169.65 64.9809Z" fill="#F2E3B5"/>
<path d="M147.423 35.8899C147.231 35.899 147.065 36.0446 147.065 36.2449V36.336C147.065 36.5217 147.229 36.6983 147.423 36.691C147.616 36.6819 147.782 36.5363 147.782 36.336V36.2449C147.782 36.0592 147.616 35.8826 147.423 35.8899Z" fill="#F2E3B5"/>
<path d="M136.954 32.0098C136.713 32.0098 136.713 32.3794 136.954 32.3794C137.195 32.3776 137.195 32.0098 136.954 32.0098Z" fill="#F2E3B5"/>
<path d="M171.487 15.8989H171.303C171.064 15.8989 170.833 16.1083 170.846 16.3523C170.857 16.5981 171.048 16.8057 171.303 16.8057H171.487C171.726 16.8057 171.957 16.5963 171.944 16.3523C171.933 16.1065 171.744 15.8989 171.487 15.8989Z" fill="#F2E3B5"/>
<path d="M174.426 9.47339C173.296 9.47339 173.294 11.2141 174.426 11.2141C175.556 11.2141 175.558 9.47339 174.426 9.47339Z" fill="#F2E3B5"/>
<path d="M134.853 0.886442C134.806 0.842742 134.747 0.81543 134.681 0.81543H134.635C134.572 0.81543 134.506 0.842742 134.462 0.886442C134.42 0.92832 134.387 0.997512 134.391 1.0576C134.394 1.12133 134.414 1.18506 134.462 1.22876C134.51 1.27246 134.569 1.29977 134.635 1.29977H134.681C134.743 1.29977 134.809 1.27246 134.853 1.22876C134.896 1.18688 134.929 1.11769 134.925 1.0576C134.921 0.99387 134.901 0.930141 134.853 0.886442Z" fill="#F2E3B5"/>
<path d="M120.421 -1.02197C119.378 -1.02197 119.376 0.585809 120.421 0.585809C121.464 0.58763 121.466 -1.02197 120.421 -1.02197Z" fill="#F2E3B5"/>
<path d="M110.318 7.55591C109.299 7.55591 109.297 9.12545 110.318 9.12545C111.338 9.12545 111.339 7.55591 110.318 7.55591Z" fill="#F2E3B5"/>
<path d="M87.357 7.77441C87.0936 7.77441 87.0918 8.18046 87.357 8.18046C87.6203 8.17863 87.6221 7.77441 87.357 7.77441Z" fill="#F2E3B5"/>
<path d="M66.0485 42.3245C65.964 42.3245 65.964 42.4531 66.0485 42.4531C66.1329 42.4549 66.1329 42.3245 66.0485 42.3245Z" fill="#F2E3B5"/>
</g>
</svg>
